<?xml version="1.0" encoding="UTF-8"?><svg xmlns="http://www.w3.org/2000/svg" viewBox="0 0 882.06 369.04"><defs><style>.e{fill:#fff;}</style></defs><g id="a"/><g id="b"><g id="c"><g><g id="d"><g><path class="e" d="M209.27,172.39v81.93h-3.39c-.1-1.63-.19-3.06-.29-4.73h-5.5c-.22-3.79-.43-7.34-.65-11.01-1.85-.12-3.45-.22-5.44-.35-.52-3.68-1.34-7.11-1.42-10.57-.2-8.76-.06-17.53-.07-26.29,0-1.02-.1-2.04-.15-3.08h-19.26v33.02h-3.92v-32.95h-17.28v27.34l-5.43,.32c0,1.83,0,3.47,0,5.11,0,1.74,0,3.49,0,5.23-3.03,.05-4.23,1.33-4.38,4.41-.04,.84-.15,2.35-.45,2.41-2.7,.54-1.88,2.59-1.9,4.17-.06,6.89-.02,13.77-.02,20.79h-3.82c-.09-.54-.17-.82-.18-1.11-.91-27.78,1.83-55.63-1.6-83.37-.26-2.12-.49-3.86-2.15-5.41-.78-.73-1.17-2.19-1.21-3.34-.14-4.38-.23-8.77,0-13.14,.16-2.97-.61-5.14-2.91-7.13-1.05-.91-1.59-2.73-1.81-4.22-.78-5.29-1.32-10.61-1.97-15.92-.03-.27-.11-.72-.27-.77-2.12-.72-1.35-2.49-1.47-3.93-.08-.97,.05-1.97-.15-2.9-1.11-5.12-2.3-10.23-3.52-15.61-1.33,6.32-2.58,12.36-3.88,18.38-.09,.44-.41,.93-.77,1.19-1.85,1.33-1.88,3.21-1.84,5.21,.02,.89-.24,1.83-.55,2.69-.34,.93-1.12,1.75-1.28,2.7-.59,3.47-.99,6.98-1.49,10.46-.62,4.32-1.48,8.62-1.84,12.96-.31,3.77-.07,7.59-.08,11.39,0,.38-.11,.75-.17,1.14l-2.37,.75-.29,4.28-2.97,.39v81.98h-3.45c-.37-1.61-.43-3.96-1.03-4.11-1.97-.49-1.5-1.77-1.51-2.91-.03-11.49-.02-22.98-.02-34.47,0-1.05,0-2.1,0-3.29H60.19v51.4h-5.22c-.2,2.78-.38,5.35-.56,7.92l-1.15-.07v-24.57h-9.89v26.26h-5.1v-32.72H15v44.85h-6.02v-22.89c-7.76,0-1.54-1.27-8.98-1.27v59.96c298.66,0,583.48,1.27,882.06,1.27,.11-9.77-3.69-16.89-11.96-21.77,3.12-.59,3.36-1.21,2.23-5.03h-3.21c-.15-1.33-.29-2.53-.45-4.01-3.44,.95-3.85-.95-3.59-3.46,.05-.48,0-.97,0-1.46,0-5.42-1.56-7.55-6.91-8.85-2.29-.55-1.84-1.67-1.04-2.82,1.8-.81,3.69-1.54,4.75-2.9,1.53-1.97,3.98-3.51,3.09-6.94-.88-3.35-1.02-6.93-1.14-10.42-.05-1.38,.52-3,1.32-4.14,1.84-2.59,4.01-4.96,6.07-7.45-1.67-2.05-3.19-3.92-4.74-5.84-1.54,1.19-2.9,2.23-4.49,3.46-1.44-2.74-2.65-5.27-4.08-7.68-.46-.78-1.55-1.83-2.23-1.75-3.55,.44-4.59-2.07-5.56-3.67,1.08-2.89,1.93-5.16,2.9-7.73,.55-.14,1.53-.39,2.8-.71-1.01-.5-1.72-.86-2.56-1.28,1.06-.82,1.91-1.48,3.04-2.36-1.69-.14-2.9-.24-4.43-.36,.61-1.03,1.06-1.77,1.74-2.9-1.63,.69-2.76,1.16-4.05,1.71-.23-1.3-.41-2.34-.62-3.52-.98,1.31-1.59,2.95-2.61,3.26-.89,.27-2.24-.94-3.5-1.56,.26,1.15,.5,2.21,.81,3.61l-2.99-.64c-.77-6.5-1.5-12.72-2.25-19.09,.32-.04,1.34-.18,2.28-.3,1.61-3.47-.7-4.41-3.74-5.16,1.5-.5,2.39-.8,3.55-1.19-.52-3.75-3.45-7.2-.87-11.12-6.65,7.15-7.39,7.81-5.29,12.06-.6,.95-1.7,1.91-1.58,2.68,.4,2.64,.42,6.11,2.08,7.6,2.44,2.19,1.39,4.21,1.09,6.19-.66,4.42-1.94,8.74-2.66,13.15-.37,2.26-.94,5.23,.15,6.79,1.55,2.22,1.38,4.28,1.53,6.53,.07,1.05,.39,2.08,.5,3.13,.19,1.87,.38,3.74,.45,5.62,.13,3.46-2.96,7.23,1.01,10.34,.12,.09,.11,.37,.13,.56,.41,4.12,1.23,8.24,1.14,12.35-.16,7.35-.87,14.7-1.32,22.05-.07,1.14,0,2.29,0,3.48-1.19,.25-2.1,.44-2.99,.62-.12,1.38-.24,2.61-.36,3.94-1.4,.12-2.63,.22-3.92,.32,0,2.9-.16,5.74,4.4,5.13-1.43,2.67-2.63,4.91-4.14,7.72-3.5-12.32-11.26-19.98-22.11-24.81-.51-.22-.92-.7-1.32-1.11-3.41-3.46-7.62-5.36-12.36-6.06-2.66-.39-5.36-.54-8.29-.83v-6.61c-1.09,.17-1.92,.3-2.72,.43-.66-1.21-1.02-2.62-1.92-3.35-2.23-1.8-2.12-4.1-2.11-6.55,.04-14.31,.02-28.63,.02-42.94,0-1.04,0-2.09,0-3.22h-18.16c0,6.72,.15,13.23-.03,19.73-.28,10.27-.88,20.53-1.12,30.81-.06,2.62-.86,3.58-3.37,3.2-.73-.11-1.47-.16-2.47-.27V130.1h-22.9v3.49c0,36.22,0,72.44,0,108.66,0,.78,.21,1.64-.06,2.32-.32,.83-.88,1.83-1.62,2.19-1.34,.66-2.88,.91-4.53,1.39,0-1.44,0-2.61,0-3.77,0-33.11,0-66.21-.03-99.32,0-1.2-.04-2.78-.74-3.53-5.19-5.49-10.56-10.82-15.96-16.29-6.26,5.13-12.15,10.07-18.18,14.83-1.72,1.36-2.29,2.79-2.28,4.94,.13,28.14,.16,56.28,.22,84.42,0,1.14,0,2.29,0,3.35-2.82,.37-5.31,.69-8.18,1.06V62.02c-3.4,0-6.41,0-9.42,0-1.6,0-2.34-.57-1.62-2.4,2.29,0,4.52,.04,6.75-.01,1.82-.04,4.21,.1,4.23-2.32,.02-2.26-2.15-2.65-4.13-2.61-.78,.01-1.56-.02-2.34-.02-1.62,0-3.25,0-5.17,0-.42-18.48-.83-36.56-1.24-54.65h-.47c-.5,18.12-1,36.25-1.51,54.64-3.18,0-6.02-.23-8.78,.11-1.2,.15-2.25,1.49-3.37,2.29,1.12,.85,2.15,2.2,3.39,2.43,2.17,.4,4.46,.04,6.7,.16,.69,.04,1.34,.61,2.01,.94-.7,.31-1.39,.88-2.09,.9-3.56,.09-7.13,.04-11.03,.04V226.63c-1.85-1.47-3.26-2.59-4.56-3.61-5.39,4.53-9.59,9.42-8,16.97,.08,.37,.08,.8-.04,1.16-.13,.42-.4,1.09-.66,1.12-2.14,.2-1.67,1.78-1.67,3.05-.02,6.72,.02,13.44-.05,20.15,0,.81-.55,1.65-.94,2.42-.44,.86-1.39,1.64-1.45,2.5-.19,2.88-.07,5.77-.07,8.7h-5.32v-59.03c-2.04-.14-3.74-.26-5.73-.4v-17.99h-9.91c-.62,8.27-1.3,16.34-1.81,24.43-.2,3.26-.03,6.54-.03,10.13-4.67,0-8.93,.11-13.19-.04-2.13-.08-3.77,.13-3.85,2.41-1.72,.38-3.15,.7-4.92,1.09v-11.7c-1.14-.22-1.96-.38-2.84-.56-.09-1.79-.17-3.41-.26-5.17h-20.8v27.76h-7.85v22.07h-3.46c-.16-1.32-.31-2.44-.48-3.82h-5.88l.31-.65c-1.09-.9-2.17-1.81-3.71-3.09l-.39-2.8-3.37,.17c0,3.05-.01,5.77,0,8.49,.01,2.1-1.04,2.13-3.01,1.37,1.77-16.85-2.06-33.11-4.79-49.71-.4,.36-.64,.47-.65,.6-1.75,12.89-5.43,25.53-4.99,38.71,.09,2.72,.08,5.45-.03,8.18-.03,.72-.6,1.43-.91,2.14l-1.13-.35v-58.48h-27.91v11.64c-1.54,.17-2.65,.3-4.22,.47v23.43l-.91,.1c-.69-2.71-1.38-5.42-2.27-8.91-.92,3.18-1.09,5.92-2.43,7.84-1.74,2.5-4.66,.75-7.41,1.01v-21.61h-5.07c-.12,1.55-.22,2.86-.32,4.19h-14.78c-.22-1.14-.41-2.14-.61-3.15h-6.68l-.32,4.54h-5.24c-.1-1.25-.19-2.27-.28-3.33h-5.51v19.61c-2.24,.1-4.23,.2-6.35,.3-.18,4-.35,7.84-.53,11.71-1.54,.18-2.75,.33-4.2,.5v12.38h-3.5c0-6.06-.13-11.9,.04-17.72,.11-3.8-2.2-6.34-3.66-9.27-5.94,6.83-3.76,14.96-4.33,22.54-2.69,.84-2.88-.59-2.87-2.51,.04-15.87,.02-31.74,.02-47.61,0-1.14,0-2.27,0-3.54h-19.67c-.16,.32-.27,.48-.32,.66-.91,2.81,1.86,6.59-2.28,8.59-.2,.1-.07,.92-.07,1.41,0,1.56,0,3.12,0,4.67,0,3.85,0,7.69,0,11.72-1.85,0-3.21-.11-4.56,.03-2.13,.22-2.95-.5-2.85-2.75,.17-3.89,.05-7.79,.05-11.68,0-3.86,0-7.72,0-11.89h-12.92v-20.88h-16.33v10.27h-15.76c0,1.34,0,2.39,0,3.43,0,9.25,.2,18.51-.06,27.75-.24,8.68-.93,17.34-1.48,26.01-.04,.6-.52,1.16-.8,1.74l-.76-.21V136.06c-1.14-.29-1.96-.49-2.97-.75v-20.72c-1.08-.18-1.91-.32-2.94-.49v-8.3c-1.09-.28-1.98-.5-2.8-.71-.14-1.16-.25-2.1-.38-3.09-1.08-.17-2-.32-3.04-.49-.07-1.47-.13-2.82-.2-4.28h-3.15c-.4-3.27-1.04-6.51-1.15-9.77-.18-5.64,.12-11.3-.12-16.94-.06-1.5-1-3.56-2.19-4.27-1.63-.98-2.09-1.91-2.01-3.63,.12-2.58,.03-5.18,.03-7.77l-1.12,.03v10.09c-5.24,1.71-5.74,2.42-5.74,7.7,0,7.01,0,14.02,0,21.03,0,1.03-.11,2.05-.17,3.06l-3.66,.28c-.17,1.37-.33,2.68-.5,4.02l-2.75,.48c-.11,1.31-.21,2.54-.31,3.81-1.13,.25-2.13,.48-3.3,.74,0,1.96,.07,3.8-.04,5.63-.04,.66-.43,1.81-.77,1.85-2.02,.25-1.52,1.71-1.53,2.87-.03,5.45,0,10.91-.03,16.36,0,.76,.06,2.04-.3,2.2-2.14,.95-1.39,2.75-1.39,4.23-.03,33.98-.02,67.96-.05,101.95,0,1.12,.07,2.82-.57,3.25-2.24,1.5-1.91,3.64-2.01,5.71-.07,1.4-.01,2.81-.01,4.24h-3.76v-60.92h-16.65v65.38c-.38,.28-.77,.56-1.15,.84-1.37-1.73-2.51-3.74-4.16-5.13-2.65-2.21-3.35-4.77-3.32-8.13,.16-15.09,.07-30.18,.07-45.28v-3.14c-1.83-.09-3.26-.17-4.83-.25-.16-1.53-.3-2.92-.48-4.63h-12.84v-30.57h-11.56v63.44h-10.8v-53.61h-13.97Z"/><path d="M209.27,172.39h13.97v53.61h10.8v-63.44h11.56v30.57h12.84c.18,1.71,.32,3.11,.48,4.63,1.56,.08,3,.15,4.83,.25v3.14c0,15.09,.09,30.19-.07,45.28-.04,3.36,.67,5.92,3.32,8.13,1.57,1.32,2.68,3.19,3.96,4.86l1.36-.47v-65.48h16.65v60.92h3.76c0-1.43-.05-2.84,.01-4.24,.1-2.08-.23-4.21,2.01-5.71,.64-.43,.57-2.13,.57-3.25,.03-33.98,.01-67.96,.05-101.95,0-1.48-.75-3.28,1.39-4.23,.36-.16,.3-1.43,.3-2.2,.02-5.45,0-10.91,.03-16.36,0-1.16-.49-2.62,1.53-2.87,.34-.04,.74-1.19,.77-1.85,.11-1.83,.04-3.67,.04-5.63,1.17-.26,2.17-.49,3.3-.74,.1-1.27,.2-2.5,.31-3.81l2.75-.48c.17-1.34,.33-2.65,.5-4.02l3.66-.28c.06-1,.17-2.03,.17-3.06,.01-7.01,0-14.02,0-21.03,0-5.28,.5-5.99,5.74-7.7v-10.09l1.12-.03c0,2.59,.09,5.18-.03,7.77-.08,1.72,.38,2.65,2.01,3.63,1.19,.72,2.12,2.77,2.19,4.27,.24,5.64-.06,11.29,.12,16.94,.1,3.26,.75,6.5,1.15,9.77h3.15c.07,1.47,.13,2.81,.2,4.28,1.04,.17,1.97,.32,3.04,.49,.12,.99,.23,1.93,.38,3.09,.82,.21,1.71,.43,2.8,.71v8.3c1.04,.17,1.86,.31,2.94,.49v20.72c1.02,.26,1.83,.46,2.97,.75v128.24l.76,.21c.28-.58,.76-1.15,.8-1.74,.55-8.67,1.24-17.33,1.48-26.01,.25-9.24,.06-18.5,.06-27.75,0-1.04,0-2.09,0-3.43h15.76v-10.27h16.33v20.88h12.92c0,4.17,0,8.03,0,11.89,0,3.89,.12,7.8-.05,11.68-.1,2.25,.72,2.97,2.85,2.75,1.34-.14,2.71-.03,4.56-.03,0-4.03,0-7.88,0-11.72,0-1.56,0-3.12,0-4.67,0-.49-.13-1.31,.07-1.41,4.14-1.99,1.37-5.78,2.28-8.59,.06-.18,.16-.34,.32-.66h19.67c0,1.27,0,2.41,0,3.54,0,15.87,.02,31.74-.02,47.61,0,1.93,.18,3.35,2.87,2.51,.56-7.58-1.61-15.7,4.33-22.54,1.46,2.93,3.77,5.47,3.66,9.27-.17,5.83-.04,11.66-.04,17.72h3.5v-12.38c1.46-.17,2.66-.31,4.2-.5,.17-3.86,.35-7.7,.53-11.71,2.13-.1,4.12-.19,6.35-.3v-19.61h5.51c.09,1.06,.17,2.08,.28,3.33h5.24l.32-4.54h6.68c.19,1.01,.39,2.01,.61,3.15h14.78c.1-1.33,.2-2.64,.32-4.19h5.07v21.61c2.74-.25,5.66,1.49,7.41-1.01,1.34-1.92,1.51-4.66,2.43-7.84,.89,3.49,1.58,6.2,2.27,8.91l.91-.11v-23.42c1.57-.17,2.69-.3,4.22-.47v-11.64h27.91v58.48l1.13,.35c.32-.71,.89-1.42,.91-2.14,.11-2.72,.12-5.45,.03-8.18-.44-13.18,3.24-25.82,4.99-38.71,.02-.13,.25-.24,.65-.6,2.73,16.6,6.56,32.86,4.79,49.71,1.97,.76,3.02,.73,3.01-1.37-.02-2.72,0-5.44,0-8.49l3.37-.17,.39,2.8c1.53,1.28,2.62,2.18,3.71,3.09l-.31,.65h5.88c.17,1.37,.31,2.5,.48,3.82h3.46v-22.07h7.85v-27.76h20.8c.09,1.76,.17,3.38,.26,5.17,.88,.17,1.7,.33,2.84,.56v11.7c1.77-.39,3.2-.71,4.92-1.09,.08-2.28,1.72-2.49,3.85-2.41,4.26,.15,8.53,.04,13.19,.04,0-3.59-.17-6.87,.03-10.13,.51-8.09,1.18-16.16,1.81-24.43h9.91v17.99c1.99,.14,3.68,.26,5.73,.4v59.03h5.32c0-2.93-.11-5.83,.07-8.7,.06-.86,1-1.63,1.45-2.5,.4-.77,.93-1.61,.94-2.42,.08-6.72,.03-13.44,.05-20.15,0-1.28-.46-2.85,1.67-3.05,.26-.02,.53-.7,.66-1.12,.11-.36,.11-.79,.04-1.16-1.58-7.55,2.61-12.44,8-16.97,1.29,1.02,2.71,2.15,4.56,3.61V61.52c3.9,0,7.47,.05,11.03-.04,.71-.02,1.4-.58,2.09-.9-.67-.33-1.33-.91-2.01-.94-2.23-.12-7.38,.24-9.54-.16-.14-.03-.28-.07-.41-.12-2.08-.81-2.05-3.92,.09-4.54,.1-.03,.2-.05,.3-.06,2.76-.34,8.45-.11,11.63-.11,.51-18.39,1.01-36.52,1.51-54.65h.47c.41,18.09,.82,36.17,1.24,54.65,1.92,0,3.55,0,5.17,0,.78,0,1.56,.03,2.34,.02,1.98-.04,4.15,.36,4.13,2.61-.02,2.42-2.41,2.28-4.23,2.32-2.23,.05-4.45,.01-6.75,.01-.72,1.83,.02,2.41,1.62,2.4,3.01,0,6.02,0,9.42,0V233.85c2.87-.37,5.36-.7,8.18-1.06,0-1.07,0-2.21,0-3.35-.06-28.14-.09-56.28-.22-84.42,0-2.15,.56-3.58,2.28-4.94,6.03-4.76,11.91-9.7,18.18-14.83,5.4,5.47,10.77,10.8,15.96,16.29,.71,.75,.74,2.33,.74,3.53,.04,33.11,.03,66.21,.03,99.32,0,1.16,0,2.33,0,3.77,1.65-.48,3.19-.72,4.53-1.39,.73-.36,1.29-1.36,1.62-2.19,.26-.68,.06-1.54,.06-2.32,0-36.22,0-72.44,0-108.66v-3.49h22.9v144.64c1,.11,1.74,.16,2.47,.27,2.51,.38,3.31-.58,3.37-3.2,.23-10.27,.83-20.53,1.12-30.81,.18-6.5,.03-13.01,.03-19.73h18.16c0,1.14,0,2.18,0,3.22,0,14.31,.02,28.63-.02,42.94,0,2.45-.12,4.75,2.11,6.55,.9,.73,1.26,2.14,1.92,3.35,.8-.13,1.63-.26,2.72-.43v6.61c2.93,.28,5.62,.43,8.29,.83,4.74,.7,8.94,2.6,12.36,6.06,.4,.41,.81,.88,1.32,1.11,10.85,4.83,18.61,12.48,22.11,24.81,1.51-2.81,2.71-5.05,4.14-7.72-4.55,.61-4.4-2.22-4.4-5.13,1.29-.11,2.52-.21,3.92-.32,.12-1.33,.23-2.56,.36-3.94,.89-.18,1.8-.37,2.99-.62,0-1.2-.06-2.34,0-3.48,.45-7.35,1.17-14.69,1.32-22.05,.09-4.11-.73-8.23-1.14-12.35-.02-.19-.01-.47-.13-.56-3.96-3.1-.88-6.87-1.01-10.34-.07-1.88-.26-3.75-.45-5.62-.11-1.05-.43-2.08-.5-3.13-.15-2.25,.02-4.31-1.53-6.53-1.09-1.56-.51-4.53-.15-6.79,.72-4.41,2-8.73,2.66-13.15,.3-1.97,1.35-3.99-1.09-6.19-1.66-1.49-1.68-4.96-2.08-7.6-.12-.77,.99-1.72,1.58-2.68-2.09-4.25-1.35-4.91,5.29-12.06-2.57,3.91,.36,7.37,.87,11.12-1.15,.39-2.04,.68-3.55,1.19,3.05,.75,5.35,1.7,3.74,5.16-.94,.12-1.96,.26-2.28,.3,.75,6.37,1.48,12.59,2.25,19.09l2.99,.64c-.31-1.39-.55-2.45-.81-3.61,1.26,.61,2.6,1.83,3.5,1.56,1.02-.31,1.63-1.95,2.61-3.26,.21,1.18,.39,2.22,.62,3.52,1.29-.55,2.41-1.02,4.05-1.71-.68,1.13-1.12,1.88-1.74,2.9,1.53,.13,2.74,.23,4.43,.36-1.12,.87-1.98,1.54-3.04,2.36,.84,.42,1.55,.78,2.56,1.28-1.26,.32-2.24,.57-2.8,.71-.96,2.57-1.81,4.84-2.9,7.73,.97,1.6,2.01,4.11,5.56,3.67,.68-.08,1.76,.96,2.23,1.75,1.43,2.4,2.64,4.93,4.08,7.68,1.59-1.22,2.95-2.27,4.49-3.46,1.56,1.92,3.08,3.79,4.74,5.84-2.06,2.49-4.23,4.85-6.07,7.45-.81,1.14-1.37,2.76-1.32,4.14,.13,3.49,.27,7.07,1.14,10.42,.9,3.43-1.56,4.97-3.09,6.94-1.06,1.37-2.95,2.09-4.75,2.9-.8,1.15-1.25,2.26,1.04,2.82,5.36,1.3,6.91,3.43,6.91,8.85,0,.49,.04,.98,0,1.46-.25,2.52,.16,4.42,3.59,3.46,.17,1.47,.3,2.67,.45,4.01h3.21c1.12,3.82,.88,4.44-2.23,5.03,8.27,4.88,12.07,12,11.96,21.77v38.88L0,367.78v-98.84l8.98,1.27v22.89h6.02v-44.85h23.27v32.72h5.1v-26.26h9.89v24.6l1.15,.04c.18-2.57,.37-5.13,.56-7.92h5.22v-51.4h34.96c0,1.19,0,2.24,0,3.29,0,11.49-.01,22.98,.02,34.47,0,1.14-.47,2.41,1.51,2.91,.61,.15,.66,2.5,1.03,4.11h3.45v-81.98l2.97-.39,.29-4.28,2.37-.75c.06-.39,.17-.77,.17-1.14,.02-3.8-.23-7.62,.08-11.39,.36-4.34,1.22-8.64,1.84-12.96,.5-3.49,.9-6.99,1.49-10.46,.16-.94,.94-1.76,1.28-2.7,.31-.86,.57-1.79,.55-2.69-.04-1.99-.01-3.86,1.8-5.19,.35-.25,.72-.79,.81-1.21,1.3-6.03,2.56-12.06,3.88-18.38,1.22,5.38,2.41,10.49,3.52,15.61,.2,.93,.07,1.93,.15,2.9,.12,1.44-.65,3.21,1.47,3.93,.16,.05,.24,.5,.27,.77,.64,5.31,1.18,10.63,1.97,15.92,.22,1.49,.76,3.32,1.81,4.22,2.29,1.98,3.07,4.16,2.91,7.13-.24,4.37-.14,8.76,0,13.14,.04,1.15,.43,2.61,1.21,3.34,1.66,1.55,1.89,3.29,2.15,5.41,3.43,27.74,.69,55.59,1.6,83.37,0,.29,.09,.57,.18,1.11h3.82c0-7.02-.03-13.91,.02-20.79,.01-1.58-.8-3.63,1.9-4.17,.3-.06,.41-1.57,.45-2.41,.16-3.08,1.35-4.36,4.38-4.41,0-1.74,0-3.49,0-5.23,0-1.64,0-3.27,0-5.11l5.43-.32v-27.34h17.28v32.95h3.92v-33.02h19.26c.05,1.04,.15,2.06,.15,3.08,.01,8.76-.13,17.53,.07,26.29,.08,3.45,.9,6.89,1.42,10.57,1.99,.13,3.59,.23,5.44,.35,.22,3.67,.43,7.22,.65,11.01h5.5c.1,1.67,.19,3.1,.29,4.73h3.39v-81.93Z"/></g></g><g><path d="M79.83,359.5c-2.42,0-4.67-1.09-6.17-3l-31.62-40.27v35.43c0,4.33-3.52,7.84-7.85,7.84h-13.93c-4.33,0-7.84-3.52-7.84-7.84v-75.47c0-4.33,3.52-7.84,7.84-7.84h15.9c2.42,0,4.67,1.09,6.17,3l31.62,40.27v-35.43c0-4.33,3.52-7.84,7.85-7.84h13.82c4.33,0,7.84,3.52,7.84,7.84v75.47c0,4.33-3.52,7.84-7.84,7.84h-15.79Z"/><path d="M139.7,361.59c-5.22,0-10.09-.8-14.48-2.39-4.47-1.61-8.36-3.95-11.58-6.96-3.23-3.02-5.76-6.68-7.52-10.86-1.74-4.15-2.63-8.83-2.63-13.9s.83-9.95,2.48-14.19c1.67-4.31,4.1-8.03,7.23-11.07,3.11-3.02,6.9-5.38,11.27-7,4.28-1.59,9.15-2.4,14.46-2.4s10.06,.81,14.31,2.41c4.36,1.63,8.11,4.05,11.17,7.18,3.04,3.13,5.38,6.97,6.97,11.43,1.54,4.35,2.33,9.27,2.33,14.63v6.1h-8.01c1.75,.58,3.27,1.77,4.26,3.42,1.43,2.38,1.52,5.26,.23,7.71-5.56,10.55-15.81,15.9-30.48,15.9Zm-7.58-27.02c.66,2.58,2.14,4.9,7.69,4.9,2.57,0,4.41-.81,5.81-2.54,.89-1.11,2.09-1.92,3.45-2.36h-16.94Zm11.83-19.58c-1.26-.86-2.72-1.26-4.47-1.26-1.97,0-3.51,.41-4.69,1.26h9.16Z"/><path d="M209.93,361.59c-5.22,0-10.09-.8-14.48-2.39-4.47-1.61-8.36-3.95-11.58-6.96-3.23-3.02-5.76-6.68-7.52-10.86-1.74-4.15-2.63-8.83-2.63-13.9s.83-9.95,2.48-14.19c1.67-4.31,4.1-8.03,7.23-11.07,3.11-3.02,6.9-5.38,11.27-7,4.28-1.59,9.15-2.4,14.46-2.4s10.06,.81,14.31,2.41c4.35,1.63,8.11,4.05,11.16,7.18,3.04,3.13,5.38,6.97,6.97,11.43,1.54,4.35,2.33,9.27,2.33,14.63v6.1h-8.01c1.76,.58,3.27,1.77,4.26,3.41,1.44,2.38,1.52,5.26,.23,7.71-5.56,10.55-15.82,15.9-30.48,15.9Zm-7.58-27.02c.66,2.58,2.14,4.9,7.69,4.9,2.57,0,4.41-.81,5.8-2.54,.89-1.11,2.09-1.92,3.45-2.36h-16.94Zm11.83-19.58c-1.26-.86-2.72-1.26-4.47-1.26-1.97,0-3.51,.41-4.69,1.26h9.16Z"/><path d="M276.52,361.26c-4.66,0-9.03-.9-12.99-2.66-3.93-1.76-7.4-4.21-10.32-7.3-2.92-3.08-5.21-6.75-6.83-10.89-1.61-4.12-2.42-8.62-2.42-13.36s.77-8.86,2.29-12.93c1.53-4.1,3.75-7.75,6.59-10.84,2.86-3.11,6.32-5.59,10.28-7.39,4.01-1.81,8.44-2.73,13.18-2.73,4.99,0,9.54,1.1,13.53,3.27v-28.62c0-4.33,3.52-7.84,7.84-7.84h12.38c4.33,0,7.84,3.52,7.84,7.84v83.85c0,4.33-3.52,7.84-7.84,7.84h-12.38c-2.39,0-4.53-1.08-5.97-2.77-4.24,3.01-9.32,4.53-15.18,4.53Zm5.07-42.9c-1.25,0-2.38,.22-3.46,.68-1.09,.46-1.99,1.06-2.76,1.86-.83,.86-1.48,1.81-2,2.92-.46,.99-.68,2.04-.68,3.23,0,1.31,.22,2.48,.68,3.58,.47,1.13,1.09,2.08,1.88,2.9,.77,.79,1.67,1.4,2.75,1.85,1.1,.46,2.27,.68,3.58,.68,1.24,0,2.38-.22,3.47-.68,1.09-.46,1.99-1.06,2.75-1.85,.81-.84,1.48-1.83,1.99-2.95,.47-1.03,.7-2.11,.7-3.32s-.23-2.32-.71-3.39c-.51-1.15-1.17-2.15-1.97-2.97-.77-.79-1.67-1.4-2.75-1.85-1.1-.46-2.23-.68-3.47-.68Z"/><path d="M694.02,359.12c-2.2,0-4.25-.99-5.61-2.73l-34.5-43.93v39.52c0,3.93-3.2,7.13-7.13,7.13h-16.79c-3.93,0-7.13-3.2-7.13-7.13v-82.43c0-3.93,3.2-7.13,7.13-7.13h18.4c2.21,0,4.25,1,5.61,2.73l34.49,43.93v-39.52c0-3.93,3.2-7.13,7.13-7.13h16.67c3.93,0,7.13,3.2,7.13,7.13v82.43c0,3.93-3.2,7.13-7.13,7.13h-18.28Z"/><path d="M756.06,359.12c-3.93,0-7.13-3.2-7.13-7.13v-38.19l-28.16-40.15c-1.53-2.19-1.72-5.02-.49-7.39,1.23-2.37,3.66-3.84,6.33-3.84h19.84c2.37,0,4.57,1.17,5.9,3.12l12.22,17.97,12.12-17.96c1.33-1.97,3.54-3.14,5.91-3.14h19.82c2.67,0,5.1,1.47,6.33,3.85s1.04,5.21-.5,7.39l-28.26,40.14v38.18c0,3.93-3.2,7.13-7.13,7.13h-16.79Z"/><path d="M843.15,361.59c-6.62,0-13.05-1.27-19.11-3.77-6.06-2.5-11.48-6.07-16.1-10.61-4.61-4.52-8.36-9.95-11.14-16.16-2.81-6.26-4.23-13.16-4.23-20.52s1.4-14.22,4.17-20.4c2.74-6.13,6.48-11.49,11.11-15.95,4.62-4.45,10.05-7.97,16.14-10.47,6.1-2.5,12.59-3.77,19.28-3.77,3.79,0,7.58,.41,11.26,1.21,3,.66,6.15,1.62,9.35,2.85,2.72,1.04,4.56,3.72,4.56,6.66v18.03c0,3.93-3.2,7.12-7.13,7.12-1.56,0-3.05-.5-4.31-1.46-3.61-2.73-7.64-4.06-12.32-4.06-2.89,0-5.59,.53-8.02,1.56-2.44,1.04-4.56,2.47-6.3,4.24-1.74,1.78-3.14,3.93-4.15,6.41-1.01,2.48-1.53,5.22-1.53,8.14s.51,5.77,1.53,8.25c1.01,2.49,2.43,4.66,4.21,6.47,1.79,1.82,3.91,3.27,6.32,4.31,2.38,1.03,5.02,1.55,7.83,1.55,4.55,0,8.67-1.39,12.59-4.24,1.22-.89,2.65-1.36,4.15-1.36,3.94,0,7.14,3.2,7.14,7.14v23.18l-5.03,1.76c-3.7,1.31-7.22,2.3-10.44,2.92-3.3,.63-6.6,.95-9.81,.95Z"/><path d="M329.03,359.33c-3.15,0-5.99-1.88-7.22-4.78-1.23-2.9-.62-6.24,1.57-8.51l16.01-16.6c5.76-5.99,10.32-11.12,13.56-15.25,3.19-4.06,5.57-7.51,7.1-10.25,1.78-3.22,2.41-5.07,2.63-6.06,.33-1.54,.5-2.82,.5-3.8,0-.91-.14-1.77-.44-2.64-.27-.77-.65-1.45-1.18-2.05-.52-.6-1.14-1.06-1.89-1.42-.68-.33-1.56-.5-2.61-.5-2.63,0-3.79,.98-4.42,1.72-1.15,1.32-1.7,3-1.7,5.13h0s.01,.09,.02,.18c.69,6.5-3.6,7.47-4.94,7.61l-.21,.02h-19.99c-2.21,0-4.33-.94-5.82-2.58-1.48-1.62-2.21-3.8-2.01-5.98,.37-3.99,1.26-7.77,2.64-11.23,1.9-4.77,4.62-8.96,8.1-12.43,3.47-3.47,7.64-6.18,12.39-8.05,4.7-1.84,9.9-2.78,15.46-2.78s10.6,.89,15.28,2.63c4.73,1.77,8.88,4.29,12.34,7.48,3.49,3.22,6.25,7.09,8.21,11.5,1.97,4.43,2.97,9.29,2.97,14.44,0,5.53-1.21,10.73-3.58,15.45-2.31,4.57-5.97,9.25-10.89,13.91l-7.52,7.04h15.1c4.33,0,7.84,3.52,7.84,7.85v12.09c0,4.33-3.52,7.84-7.84,7.84h-59.44Z"/><path d="M404.19,359.33c-4.33,0-7.84-3.52-7.84-7.84v-82.16c0-4.33,3.52-7.84,7.84-7.84h33.33c11.12,0,19.86,3.03,25.97,9,6.14,6,9.25,14.42,9.25,25.03s-3.11,19.02-9.25,25.02c-6.11,5.98-14.85,9-25.97,9h-9.82v21.95c0,4.33-3.52,7.84-7.84,7.84h-15.67Zm27.26-56.62c7.36,0,8.87-2.88,8.87-7.2s-1.51-7.2-8.87-7.2h-3.75v14.4h3.75Z"/><path d="M511.57,361.59c-5.6,0-10.83-.86-15.54-2.56-4.78-1.73-8.95-4.23-12.4-7.46-3.46-3.23-6.16-7.14-8.05-11.62-1.87-4.45-2.81-9.46-2.81-14.9s.89-10.68,2.65-15.21c1.79-4.61,4.39-8.59,7.73-11.84,3.33-3.24,7.39-5.76,12.06-7.5,4.6-1.71,9.82-2.58,15.51-2.58s10.79,.87,15.35,2.58c4.66,1.75,8.68,4.33,11.95,7.69,3.25,3.34,5.76,7.46,7.46,12.23,1.45,4.09,2.05,9.5,2.27,12.36,.19,2.47-.66,4.93-2.33,6.75-1.66,1.8-4.02,2.83-6.47,2.83l-35.98,.02c.66,2.97,2.27,5.94,8.72,5.94,2.89,0,4.96-.92,6.53-2.88,1.45-1.81,3.69-2.84,6.15-2.84h13.12c2.74,0,5.25,1.4,6.69,3.74,1.44,2.33,1.57,5.18,.34,7.62-5.87,11.69-16.96,17.61-32.96,17.61Zm5.54-49.71c-.07-.06-.14-.12-.22-.18-1.5-1.23-3.32-1.83-5.56-1.83-2.39,0-4.23,.56-5.61,1.7-.12,.1-.24,.2-.35,.31h11.73Z"/><path d="M586.61,361.59c-5.6,0-10.83-.86-15.54-2.56-4.78-1.73-8.95-4.23-12.4-7.46-3.46-3.23-6.16-7.14-8.05-11.62-1.87-4.45-2.81-9.46-2.81-14.9s.89-10.68,2.65-15.21c1.79-4.61,4.39-8.59,7.73-11.84,3.33-3.24,7.39-5.76,12.06-7.5,4.6-1.71,9.82-2.58,15.52-2.58s10.79,.87,15.35,2.58c4.66,1.75,8.68,4.33,11.95,7.69,3.25,3.34,5.76,7.46,7.46,12.23,1.45,4.09,2.05,9.5,2.27,12.36,.19,2.47-.66,4.93-2.33,6.75-1.66,1.8-4.02,2.83-6.47,2.83l-35.98,.02c.66,2.97,2.27,5.94,8.72,5.94,2.89,0,4.96-.92,6.53-2.88,1.45-1.81,3.69-2.84,6.15-2.84h13.12c2.74,0,5.25,1.4,6.69,3.74,1.44,2.33,1.57,5.18,.34,7.62-5.87,11.69-16.96,17.61-32.96,17.61Zm5.54-49.71c-.07-.06-.14-.12-.22-.18-1.5-1.23-3.32-1.83-5.56-1.83-2.39,0-4.23,.56-5.61,1.7-.12,.1-.24,.2-.35,.31h11.73Z"/></g><g><path class="e" d="M16.42,351.65v-75.47c0-2.12,1.72-3.84,3.84-3.84h15.9c1.18,0,2.29,.54,3.02,1.47l31.9,40.63c2.26,2.87,6.87,1.28,6.87-2.37v-35.88c0-2.12,1.72-3.84,3.84-3.84h13.82c2.12,0,3.84,1.72,3.84,3.84v75.47c0,2.12-1.72,3.84-3.84,3.84h-15.79c-1.18,0-2.29-.54-3.02-1.47l-31.9-40.63c-2.26-2.87-6.87-1.28-6.87,2.37v35.88c0,2.12-1.72,3.84-3.84,3.84h-13.93c-2.12,0-3.84-1.72-3.84-3.84Z"/><path class="e" d="M131.94,330.57c-2.43,0-4.33,2.26-3.78,4.63,1.29,5.52,5.17,8.28,11.65,8.28,3.79,0,6.76-1.34,8.92-4.03,.68-.84,1.76-1.26,2.84-1.26h11.64c2.89,0,4.77,3.09,3.42,5.65-4.84,9.18-13.82,13.76-26.94,13.76-4.78,0-9.15-.72-13.12-2.15s-7.37-3.47-10.2-6.12c-2.83-2.65-5.02-5.81-6.56-9.49-1.54-3.68-2.32-7.79-2.32-12.35s.73-8.95,2.21-12.74c1.47-3.79,3.56-7,6.29-9.65,2.72-2.65,6.01-4.69,9.87-6.12,3.86-1.44,8.22-2.15,13.07-2.15s9.08,.72,12.9,2.15c3.82,1.43,7.06,3.51,9.71,6.23,2.65,2.72,4.67,6.05,6.07,9.98s2.1,8.36,2.1,13.29v2.1h-37.76Zm12.5-11.58c3.5,0,5.3-4.43,2.6-6.68l-.06-.05c-2.06-1.69-4.56-2.54-7.5-2.54-3.09,0-5.61,.81-7.56,2.43-.08,.06-.15,.13-.22,.19-2.61,2.3-.83,6.65,2.65,6.65h10.08Z"/><path class="e" d="M202.17,330.57c-2.43,0-4.33,2.26-3.78,4.63,1.29,5.52,5.17,8.28,11.65,8.28,3.79,0,6.76-1.34,8.92-4.03,.68-.84,1.76-1.26,2.84-1.26h11.64c2.89,0,4.77,3.09,3.42,5.65-4.84,9.18-13.82,13.76-26.94,13.76-4.78,0-9.15-.72-13.12-2.15s-7.37-3.47-10.2-6.12c-2.83-2.65-5.02-5.81-6.56-9.49-1.54-3.68-2.32-7.79-2.32-12.35s.73-8.95,2.21-12.74c1.47-3.79,3.56-7,6.29-9.65,2.72-2.65,6.01-4.69,9.87-6.12,3.86-1.44,8.22-2.15,13.07-2.15s9.08,.72,12.9,2.15c3.82,1.43,7.06,3.51,9.7,6.23,2.65,2.72,4.67,6.05,6.07,9.98,1.4,3.93,2.1,8.36,2.1,13.29v2.1h-37.76Zm12.5-11.58c3.5,0,5.3-4.43,2.6-6.68l-.06-.05c-2.06-1.69-4.56-2.54-7.5-2.54-3.09,0-5.61,.81-7.56,2.43-.08,.06-.15,.13-.22,.19-2.61,2.3-.83,6.65,2.65,6.65h10.08Z"/><path class="e" d="M297.68,263.96h12.38c2.12,0,3.84,1.72,3.84,3.84v83.85c0,2.12-1.72,3.84-3.84,3.84h-12.38c-2.12,0-3.84-1.72-3.84-3.84v-2.44c-4.26,5.37-10.03,8.05-17.31,8.05-4.12,0-7.9-.77-11.36-2.31-3.46-1.55-6.47-3.68-9.04-6.4s-4.57-5.92-6.01-9.6c-1.43-3.68-2.15-7.64-2.15-11.91,0-4.04,.68-7.89,2.04-11.53,1.36-3.64,3.29-6.82,5.79-9.54,2.5-2.72,5.5-4.87,8.99-6.45,3.5-1.58,7.33-2.37,11.53-2.37,4.44,0,8.39,.97,11.87,2.92,2.54,1.42,5.66-.45,5.66-3.36v-28.91c0-2.12,1.72-3.84,3.84-3.84Zm-28.99,63.08c0,1.84,.33,3.55,1,5.13,.66,1.58,1.56,2.96,2.7,4.13,1.14,1.18,2.5,2.1,4.08,2.76,1.58,.66,3.29,.99,5.13,.99s3.43-.33,5.02-.99c1.58-.66,2.94-1.58,4.08-2.76,1.14-1.18,2.06-2.54,2.75-4.08,.7-1.54,1.05-3.2,1.05-4.96s-.35-3.43-1.05-5.02c-.7-1.58-1.62-2.96-2.75-4.13-1.14-1.18-2.5-2.1-4.08-2.76-1.58-.66-3.25-.99-5.02-.99s-3.44,.33-5.02,.99c-1.58,.66-2.94,1.58-4.08,2.76s-2.06,2.52-2.75,4.02c-.7,1.51-1.05,3.14-1.05,4.91Z"/><path class="e" d="M626.85,351.99v-82.43c0-1.73,1.4-3.13,3.13-3.13h18.4c.96,0,1.87,.44,2.46,1.2l36.05,45.9c1.84,2.34,5.6,1.04,5.6-1.93v-42.03c0-1.73,1.4-3.13,3.13-3.13h16.67c1.73,0,3.13,1.4,3.13,3.13v82.43c0,1.73-1.4,3.13-3.13,3.13h-18.28c-.96,0-1.87-.44-2.46-1.2l-36.05-45.9c-1.84-2.34-5.6-1.04-5.6,1.93v42.03c0,1.73-1.4,3.13-3.13,3.13h-16.79c-1.73,0-3.13-1.4-3.13-3.13Z"/><path class="e" d="M752.36,311.73l-28.32-40.37c-1.46-2.08,.03-4.93,2.56-4.93h19.84c1.04,0,2.01,.51,2.59,1.37l12.94,19.03c1.25,1.83,3.95,1.83,5.19,0l12.83-19.02c.58-.86,1.56-1.38,2.6-1.38h19.82c2.54,0,4.02,2.86,2.56,4.94l-28.42,40.36c-.37,.53-.57,1.16-.57,1.8v38.46c0,1.73-1.4,3.13-3.13,3.13h-16.79c-1.73,0-3.13-1.4-3.13-3.13v-38.46c0-.64-.2-1.27-.57-1.8Z"/><path class="e" d="M864.44,288.7c0,2.59-2.96,4.04-5.02,2.48-4.29-3.25-9.2-4.87-14.74-4.87-3.45,0-6.65,.63-9.59,1.88-2.94,1.26-5.47,2.96-7.59,5.12-2.12,2.16-3.79,4.73-5,7.7-1.22,2.98-1.82,6.2-1.82,9.65s.61,6.78,1.82,9.76c1.21,2.98,2.9,5.57,5.06,7.76,2.15,2.2,4.68,3.92,7.59,5.18s6.04,1.88,9.41,1.88c5.38,0,10.36-1.67,14.95-5.01,2.05-1.49,4.93,.01,4.93,2.55v20.34l-2.35,.82c-3.53,1.25-6.82,2.18-9.88,2.76-3.06,.59-6.08,.88-9.06,.88-6.12,0-11.98-1.16-17.59-3.47-5.61-2.31-10.55-5.57-14.82-9.76-4.28-4.19-7.71-9.18-10.29-14.94-2.59-5.76-3.88-12.06-3.88-18.88s1.27-13.07,3.82-18.76c2.55-5.69,5.96-10.59,10.23-14.7,4.27-4.12,9.23-7.33,14.88-9.65,5.65-2.31,11.57-3.47,17.76-3.47,3.53,0,7,.37,10.41,1.12,2.8,.61,5.73,1.5,8.77,2.67,1.2,.46,1.99,1.64,1.99,2.93v18.03Z"/><path class="e" d="M388.47,355.33h-59.44c-3.39,0-5.12-4.07-2.77-6.51l16.01-16.6c5.88-6.12,10.49-11.3,13.82-15.55,3.34-4.25,5.82-7.84,7.45-10.78,1.63-2.94,2.64-5.32,3.04-7.15,.4-1.83,.6-3.37,.6-4.65,0-1.35-.22-2.66-.66-3.93-.44-1.27-1.09-2.4-1.96-3.39-.88-1-1.93-1.79-3.16-2.38-1.23-.59-2.68-.89-4.35-.89-3.18,0-5.66,1.03-7.45,3.1-1.79,2.06-2.68,4.65-2.68,7.75,0,.88,.73,3.6-1.33,3.81h-19.78c-2.25,0-4.06-1.94-3.85-4.18,.34-3.63,1.13-7,2.37-10.12,1.71-4.29,4.11-7.98,7.21-11.08,3.1-3.1,6.77-5.48,11.02-7.15,4.25-1.67,8.92-2.5,14-2.5s9.63,.79,13.88,2.38c4.25,1.59,7.92,3.81,11.02,6.68,3.1,2.86,5.52,6.25,7.27,10.19,1.75,3.93,2.62,8.2,2.62,12.81,0,4.93-1.05,9.47-3.16,13.64-2.11,4.17-5.46,8.44-10.07,12.81l-7.79,7.29c-2.55,2.38-.86,6.65,2.63,6.65h15.5c2.12,0,3.84,1.72,3.84,3.84v12.09c0,2.12-1.72,3.84-3.84,3.84Z"/><path class="e" d="M419.86,355.33h-15.67c-2.12,0-3.84-1.72-3.84-3.84v-82.16c0-2.12,1.72-3.84,3.84-3.84h33.33c10.09,0,17.82,2.62,23.18,7.87,5.36,5.24,8.04,12.63,8.04,22.17s-2.68,16.92-8.04,22.16c-5.36,5.24-13.09,7.87-23.18,7.87h-9.98c-2.12,0-3.84,1.72-3.84,3.84v22.1c0,2.12-1.72,3.84-3.84,3.84Zm3.84-52.46c0,2.12,1.72,3.84,3.84,3.84h3.9c8.58,0,12.87-3.73,12.87-11.2s-4.29-11.2-12.87-11.2h-3.9c-2.12,0-3.84,1.72-3.84,3.84v14.71Z"/><path class="e" d="M502.8,328.4c-2.43,0-4.28,2.25-3.78,4.63,1.31,6.2,5.53,9.31,12.67,9.31,4.1,0,7.32-1.46,9.66-4.38,.72-.9,1.88-1.34,3.03-1.34h13.12c2.85,0,4.74,3.02,3.46,5.57-5.16,10.27-14.95,15.41-29.39,15.41-5.16,0-9.89-.78-14.18-2.32-4.29-1.55-7.97-3.75-11.02-6.61-3.06-2.86-5.42-6.28-7.09-10.25-1.67-3.97-2.5-8.42-2.5-13.35s.79-9.67,2.38-13.76c1.59-4.09,3.85-7.57,6.79-10.43,2.94-2.86,6.5-5.07,10.67-6.61,4.17-1.55,8.88-2.32,14.12-2.32s9.81,.77,13.94,2.32c4.13,1.55,7.63,3.8,10.48,6.73,2.86,2.94,5.04,6.54,6.55,10.78,1.04,2.94,1.73,7.22,2.05,11.34,.22,2.83-1.98,5.27-4.82,5.27l-36.14,.02Zm14.68-12.51c3.5,0,5.17-4.28,2.62-6.69-.21-.2-.43-.4-.66-.58-2.23-1.83-4.93-2.74-8.1-2.74-3.33,0-6.06,.88-8.16,2.62-.41,.34-.79,.71-1.15,1.11-2.15,2.42-.25,6.28,2.99,6.28h12.47Z"/><path class="e" d="M577.84,328.4c-2.43,0-4.28,2.25-3.78,4.63,1.31,6.2,5.53,9.31,12.67,9.31,4.1,0,7.32-1.46,9.66-4.38,.72-.9,1.88-1.34,3.03-1.34h13.12c2.85,0,4.74,3.02,3.46,5.57-5.16,10.27-14.95,15.41-29.39,15.41-5.16,0-9.89-.78-14.18-2.32-4.29-1.55-7.97-3.75-11.02-6.61-3.06-2.86-5.42-6.28-7.09-10.25-1.67-3.97-2.5-8.42-2.5-13.35s.79-9.67,2.38-13.76c1.59-4.09,3.85-7.57,6.79-10.43,2.94-2.86,6.5-5.07,10.67-6.61,4.17-1.55,8.88-2.32,14.12-2.32s9.81,.77,13.94,2.32c4.13,1.55,7.63,3.8,10.48,6.73,2.86,2.94,5.04,6.54,6.55,10.78,1.04,2.94,1.73,7.22,2.05,11.34,.22,2.83-1.98,5.27-4.82,5.27l-36.14,.02Zm14.68-12.51c3.5,0,5.17-4.28,2.62-6.69-.21-.2-.43-.4-.66-.58-2.23-1.83-4.93-2.74-8.1-2.74-3.33,0-6.06,.88-8.16,2.62-.41,.34-.79,.71-1.15,1.11-2.15,2.42-.25,6.28,2.99,6.28h12.47Z"/></g></g></g></g></svg>